<svg width="820" height="240" viewBox="0 0 820 240" fill="none" xmlns="http://www.w3.org/2000/svg">
  <defs>
    <linearGradient id="activityGrad" x1="0" y1="0" x2="0" y2="1">
      <stop offset="0%" stop-color="#03d162" stop-opacity="0.38" />
      <stop offset="100%" stop-color="#03d162" stop-opacity="0.0" />
    </linearGradient>
  </defs>

  <!-- Background Card -->
  <rect width="820" height="240" rx="10" fill="#0D1117" stroke="#30363d" stroke-width="1" />

  <!-- Header -->
  <g transform="translate(25, 32)">
    <path d="M10.5 8a2.5 2.5 0 11-5 0 2.5 2.5 0 015 0z M8 1a7 7 0 100 14A7 7 0 008 1zM8 3.5a4.5 4.5 0 110 9 4.5 4.5 0 010-9z" fill="#03d162" transform="translate(0, -12) scale(1.1)" />
    <text x="25" y="0" fill="#ffffff" font-size="15" font-weight="600" font-family="-apple-system,BlinkMacSystemFont,Segoe UI,Helvetica,Arial,sans-serif">Commit Activity (Last 30 Days)</text>
    <text x="765" y="0" fill="#8b949e" font-size="13" font-family="-apple-system,BlinkMacSystemFont,Segoe UI,Helvetica,Arial,sans-serif" text-anchor="end">Total: <tspan fill="#03d162" font-weight="bold">21</tspan> commits</text>
  </g>

  <!-- Grid & Axes -->
  <line x1="50" y1="200.0" x2="785" y2="200.0" stroke="#21262d" stroke-dasharray="3 3" />
<text x="40" y="204.0" fill="#8b949e" font-size="11" font-family="-apple-system,BlinkMacSystemFont,Segoe UI,Helvetica,Arial,sans-serif" text-anchor="end">0</text>
<line x1="50" y1="130.0" x2="785" y2="130.0" stroke="#21262d" stroke-dasharray="3 3" />
<text x="40" y="134.0" fill="#8b949e" font-size="11" font-family="-apple-system,BlinkMacSystemFont,Segoe UI,Helvetica,Arial,sans-serif" text-anchor="end">5</text>
<line x1="50" y1="60.0" x2="785" y2="60.0" stroke="#21262d" stroke-dasharray="3 3" />
<text x="40" y="64.0" fill="#8b949e" font-size="11" font-family="-apple-system,BlinkMacSystemFont,Segoe UI,Helvetica,Arial,sans-serif" text-anchor="end">10</text>

  <text x="50.0" y="220" fill="#8b949e" font-size="11" font-family="-apple-system,BlinkMacSystemFont,Segoe UI,Helvetica,Arial,sans-serif" text-anchor="middle">26 Aug</text>
<text x="176.7" y="220" fill="#8b949e" font-size="11" font-family="-apple-system,BlinkMacSystemFont,Segoe UI,Helvetica,Arial,sans-serif" text-anchor="middle">31 Aug</text>
<text x="303.4" y="220" fill="#8b949e" font-size="11" font-family="-apple-system,BlinkMacSystemFont,Segoe UI,Helvetica,Arial,sans-serif" text-anchor="middle">05 Sep</text>
<text x="430.2" y="220" fill="#8b949e" font-size="11" font-family="-apple-system,BlinkMacSystemFont,Segoe UI,Helvetica,Arial,sans-serif" text-anchor="middle">10 Sep</text>
<text x="556.9" y="220" fill="#8b949e" font-size="11" font-family="-apple-system,BlinkMacSystemFont,Segoe UI,Helvetica,Arial,sans-serif" text-anchor="middle">15 Sep</text>
<text x="683.6" y="220" fill="#8b949e" font-size="11" font-family="-apple-system,BlinkMacSystemFont,Segoe UI,Helvetica,Arial,sans-serif" text-anchor="middle">20 Sep</text>
<text x="785.0" y="220" fill="#8b949e" font-size="11" font-family="-apple-system,BlinkMacSystemFont,Segoe UI,Helvetica,Arial,sans-serif" text-anchor="middle">24 Sep</text>


  <!-- Area Fill & Line Chart -->
  <path d="M 50.0 200.0 C 55.1 194.4, 65.2 172.0, 75.3 172.0 C 85.5 172.0, 90.6 194.4, 100.7 200.0 C 110.8 200.0, 115.9 200.0, 126.0 200.0 C 136.2 197.2, 141.2 191.6, 151.4 186.0 C 161.5 180.4, 166.6 169.2, 176.7 172.0 C 186.9 174.8, 191.9 197.2, 202.1 200.0 C 212.2 200.0, 217.3 186.0, 227.4 186.0 C 237.6 186.0, 242.6 200.0, 252.8 200.0 C 262.9 200.0, 268.0 186.0, 278.1 186.0 C 288.2 186.0, 293.3 197.2, 303.4 200.0 C 313.6 200.0, 318.7 200.0, 328.8 200.0 C 338.9 197.2, 344.0 186.0, 354.1 186.0 C 364.3 186.0, 369.3 197.2, 379.5 200.0 C 389.6 200.0, 394.7 200.0, 404.8 200.0 C 415.0 200.0, 420.0 200.0, 430.2 200.0 C 440.3 200.0, 445.4 200.0, 455.5 200.0 C 465.7 197.2, 470.7 186.0, 480.9 186.0 C 491.0 186.0, 496.1 197.2, 506.2 200.0 C 516.3 200.0, 521.4 200.0, 531.6 200.0 C 541.7 200.0, 546.8 200.0, 556.9 200.0 C 567.0 200.0, 572.1 200.0, 582.2 200.0 C 592.4 197.2, 597.4 186.0, 607.6 186.0 C 617.7 186.0, 622.8 200.0, 632.9 200.0 C 643.1 197.2, 648.1 172.0, 658.3 172.0 C 668.4 172.0, 673.5 194.4, 683.6 200.0 C 693.8 200.0, 698.8 200.0, 709.0 200.0 C 719.1 200.0, 724.2 200.0, 734.3 200.0 C 744.4 200.0, 749.5 200.0, 759.7 200.0 C 769.8 174.8, 779.9 99.2, 785.0 74.0 L 785.0 200.0 L 50.0 200.0 Z" fill="url(#activityGrad)" />
  <path d="M 50.0 200.0 C 55.1 194.4, 65.2 172.0, 75.3 172.0 C 85.5 172.0, 90.6 194.4, 100.7 200.0 C 110.8 200.0, 115.9 200.0, 126.0 200.0 C 136.2 197.2, 141.2 191.6, 151.4 186.0 C 161.5 180.4, 166.6 169.2, 176.7 172.0 C 186.9 174.8, 191.9 197.2, 202.1 200.0 C 212.2 200.0, 217.3 186.0, 227.4 186.0 C 237.6 186.0, 242.6 200.0, 252.8 200.0 C 262.9 200.0, 268.0 186.0, 278.1 186.0 C 288.2 186.0, 293.3 197.2, 303.4 200.0 C 313.6 200.0, 318.7 200.0, 328.8 200.0 C 338.9 197.2, 344.0 186.0, 354.1 186.0 C 364.3 186.0, 369.3 197.2, 379.5 200.0 C 389.6 200.0, 394.7 200.0, 404.8 200.0 C 415.0 200.0, 420.0 200.0, 430.2 200.0 C 440.3 200.0, 445.4 200.0, 455.5 200.0 C 465.7 197.2, 470.7 186.0, 480.9 186.0 C 491.0 186.0, 496.1 197.2, 506.2 200.0 C 516.3 200.0, 521.4 200.0, 531.6 200.0 C 541.7 200.0, 546.8 200.0, 556.9 200.0 C 567.0 200.0, 572.1 200.0, 582.2 200.0 C 592.4 197.2, 597.4 186.0, 607.6 186.0 C 617.7 186.0, 622.8 200.0, 632.9 200.0 C 643.1 197.2, 648.1 172.0, 658.3 172.0 C 668.4 172.0, 673.5 194.4, 683.6 200.0 C 693.8 200.0, 698.8 200.0, 709.0 200.0 C 719.1 200.0, 724.2 200.0, 734.3 200.0 C 744.4 200.0, 749.5 200.0, 759.7 200.0 C 769.8 174.8, 779.9 99.2, 785.0 74.0" fill="none" stroke="#03d162" stroke-width="2.8" stroke-linecap="round" stroke-linejoin="round" />

  <!-- Data Points -->
  <circle cx="50.0" cy="200.0" r="2" fill="#30363d" />
<circle cx="75.3" cy="172.0" r="4.5" fill="#ffffff" stroke="#03d162" stroke-width="2.5" />
<text x="75.3" y="162.0" fill="#03d162" font-size="11" font-weight="bold" font-family="-apple-system,BlinkMacSystemFont,Segoe UI,Helvetica,Arial,sans-serif" text-anchor="middle">2</text>
<circle cx="100.7" cy="200.0" r="2" fill="#30363d" />
<circle cx="126.0" cy="200.0" r="2" fill="#30363d" />
<circle cx="151.4" cy="186.0" r="4.5" fill="#ffffff" stroke="#03d162" stroke-width="2.5" />
<text x="151.4" y="176.0" fill="#03d162" font-size="11" font-weight="bold" font-family="-apple-system,BlinkMacSystemFont,Segoe UI,Helvetica,Arial,sans-serif" text-anchor="middle">1</text>
<circle cx="176.7" cy="172.0" r="4.5" fill="#ffffff" stroke="#03d162" stroke-width="2.5" />
<text x="176.7" y="162.0" fill="#03d162" font-size="11" font-weight="bold" font-family="-apple-system,BlinkMacSystemFont,Segoe UI,Helvetica,Arial,sans-serif" text-anchor="middle">2</text>
<circle cx="202.1" cy="200.0" r="2" fill="#30363d" />
<circle cx="227.4" cy="186.0" r="4.5" fill="#ffffff" stroke="#03d162" stroke-width="2.5" />
<text x="227.4" y="176.0" fill="#03d162" font-size="11" font-weight="bold" font-family="-apple-system,BlinkMacSystemFont,Segoe UI,Helvetica,Arial,sans-serif" text-anchor="middle">1</text>
<circle cx="252.8" cy="200.0" r="2" fill="#30363d" />
<circle cx="278.1" cy="186.0" r="4.5" fill="#ffffff" stroke="#03d162" stroke-width="2.5" />
<text x="278.1" y="176.0" fill="#03d162" font-size="11" font-weight="bold" font-family="-apple-system,BlinkMacSystemFont,Segoe UI,Helvetica,Arial,sans-serif" text-anchor="middle">1</text>
<circle cx="303.4" cy="200.0" r="2" fill="#30363d" />
<circle cx="328.8" cy="200.0" r="2" fill="#30363d" />
<circle cx="354.1" cy="186.0" r="4.5" fill="#ffffff" stroke="#03d162" stroke-width="2.5" />
<text x="354.1" y="176.0" fill="#03d162" font-size="11" font-weight="bold" font-family="-apple-system,BlinkMacSystemFont,Segoe UI,Helvetica,Arial,sans-serif" text-anchor="middle">1</text>
<circle cx="379.5" cy="200.0" r="2" fill="#30363d" />
<circle cx="404.8" cy="200.0" r="2" fill="#30363d" />
<circle cx="430.2" cy="200.0" r="2" fill="#30363d" />
<circle cx="455.5" cy="200.0" r="2" fill="#30363d" />
<circle cx="480.9" cy="186.0" r="4.5" fill="#ffffff" stroke="#03d162" stroke-width="2.5" />
<text x="480.9" y="176.0" fill="#03d162" font-size="11" font-weight="bold" font-family="-apple-system,BlinkMacSystemFont,Segoe UI,Helvetica,Arial,sans-serif" text-anchor="middle">1</text>
<circle cx="506.2" cy="200.0" r="2" fill="#30363d" />
<circle cx="531.6" cy="200.0" r="2" fill="#30363d" />
<circle cx="556.9" cy="200.0" r="2" fill="#30363d" />
<circle cx="582.2" cy="200.0" r="2" fill="#30363d" />
<circle cx="607.6" cy="186.0" r="4.5" fill="#ffffff" stroke="#03d162" stroke-width="2.5" />
<text x="607.6" y="176.0" fill="#03d162" font-size="11" font-weight="bold" font-family="-apple-system,BlinkMacSystemFont,Segoe UI,Helvetica,Arial,sans-serif" text-anchor="middle">1</text>
<circle cx="632.9" cy="200.0" r="2" fill="#30363d" />
<circle cx="658.3" cy="172.0" r="4.5" fill="#ffffff" stroke="#03d162" stroke-width="2.5" />
<text x="658.3" y="162.0" fill="#03d162" font-size="11" font-weight="bold" font-family="-apple-system,BlinkMacSystemFont,Segoe UI,Helvetica,Arial,sans-serif" text-anchor="middle">2</text>
<circle cx="683.6" cy="200.0" r="2" fill="#30363d" />
<circle cx="709.0" cy="200.0" r="2" fill="#30363d" />
<circle cx="734.3" cy="200.0" r="2" fill="#30363d" />
<circle cx="759.7" cy="200.0" r="2" fill="#30363d" />
<circle cx="785.0" cy="74.0" r="4.5" fill="#ffffff" stroke="#03d162" stroke-width="2.5" />
<text x="785.0" y="64.0" fill="#03d162" font-size="11" font-weight="bold" font-family="-apple-system,BlinkMacSystemFont,Segoe UI,Helvetica,Arial,sans-serif" text-anchor="middle">9</text>

</svg>